<svg width="28" height="18" viewBox="0 0 28 18" fill="none" xmlns="http://www.w3.org/2000/svg">
<path d="M17.072 8.63226C17.072 13.2616 13.3622 17.0145 8.78601 17.0145C4.20977 17.0145 0.5 13.2616 0.5 8.63226C0.5 4.0029 4.20977 0.250061 8.78601 0.250061C13.3622 0.250061 17.072 4.0029 17.072 8.63226Z" fill="#ED0006"/>
<path d="M27.8215 8.63226C27.8215 13.2616 24.1118 17.0145 19.5355 17.0145C14.9593 17.0145 11.2495 13.2616 11.2495 8.63226C11.2495 4.0029 14.9593 0.250061 19.5355 0.250061C24.1118 0.250061 27.8215 4.0029 27.8215 8.63226Z" fill="#2F80ED"/>
<path fill-rule="evenodd" clip-rule="evenodd" d="M14.1608 2.25242C15.9423 3.78987 17.072 6.07756 17.072 8.63218C17.072 11.1868 15.9423 13.4745 14.1608 15.0119C12.3792 13.4745 11.2495 11.1868 11.2495 8.63217C11.2495 6.07756 12.3792 3.78987 14.1608 2.25242Z" fill="#6C6BBD"/>
</svg>
