<svg width="28" height="18" viewBox="0 0 28 18" fill="none" xmlns="http://www.w3.org/2000/svg">
<g id="Mastercard">
<path id="Left" fill-rule="evenodd" clip-rule="evenodd" d="M13.9737 15.0369C12.4937 16.2844 10.5738 17.0375 8.47586 17.0375C3.79477 17.0375 0 13.2879 0 8.66253C0 4.03714 3.79477 0.287529 8.47586 0.287529C10.5738 0.287529 12.4937 1.04065 13.9737 2.2882C15.4538 1.04065 17.3737 0.287529 19.4716 0.287529C24.1527 0.287529 27.9474 4.03714 27.9474 8.66253C27.9474 13.2879 24.1527 17.0375 19.4716 17.0375C17.3737 17.0375 15.4538 16.2844 13.9737 15.0369Z" fill="#ED0006"/>
<path id="Right" fill-rule="evenodd" clip-rule="evenodd" d="M13.9736 15.0369C15.7961 13.5008 16.9517 11.215 16.9517 8.66253C16.9517 6.11005 15.7961 3.82428 13.9736 2.28815C15.4537 1.04063 17.3735 0.287529 19.4714 0.287529C24.1525 0.287529 27.9473 4.03714 27.9473 8.66253C27.9473 13.2879 24.1525 17.0375 19.4714 17.0375C17.3735 17.0375 15.4537 16.2844 13.9736 15.0369Z" fill="#F9A000"/>
<path id="Middle" fill-rule="evenodd" clip-rule="evenodd" d="M13.9738 15.0368C15.7962 13.5007 16.9518 11.2149 16.9518 8.66251C16.9518 6.11008 15.7962 3.82434 13.9738 2.28821C12.1514 3.82434 10.9958 6.11008 10.9958 8.66251C10.9958 11.2149 12.1514 13.5007 13.9738 15.0368Z" fill="#FD6020"/>
</g>
</svg>
