<svg width="14" height="17" viewBox="0 0 14 17" fill="none" xmlns="http://www.w3.org/2000/svg">
<g id="PayPal">
<path id="Fill 7" fill-rule="evenodd" clip-rule="evenodd" d="M4.26777 16.0605L4.54368 14.2491L3.92906 14.2343H0.994141L3.03381 0.867239C3.04016 0.826762 3.0607 0.789187 3.0907 0.762457C3.12085 0.735727 3.15927 0.721064 3.19947 0.721064H8.14819C9.79122 0.721064 10.925 1.07436 11.5169 1.77179C11.7944 2.09896 11.9711 2.44095 12.0567 2.81716C12.1464 3.212 12.1479 3.68367 12.0604 4.25906L12.054 4.30091V4.66963L12.3316 4.83215C12.5652 4.9603 12.751 5.10694 12.8934 5.2748C13.1308 5.55463 13.2843 5.91021 13.3492 6.33163C13.4163 6.76512 13.3941 7.28109 13.2843 7.86518C13.1577 8.53694 12.953 9.1221 12.6765 9.6008C12.4223 10.0419 12.0984 10.4079 11.7137 10.6914C11.3465 10.9608 10.9102 11.1654 10.4169 11.2963C9.93885 11.4249 9.39384 11.4898 8.79606 11.4898H8.41095C8.13563 11.4898 7.86815 11.5923 7.65815 11.776C7.44757 11.9636 7.30836 12.2199 7.26565 12.5002L7.23654 12.6633L6.74901 15.8561L6.72699 15.9733C6.72108 16.0104 6.71103 16.0289 6.69625 16.0414C6.6831 16.0528 6.66418 16.0605 6.64571 16.0605H4.26777Z" fill="#28356A"/>
<path id="Fill 8" fill-rule="evenodd" clip-rule="evenodd" d="M12.5946 4.3434C12.58 4.44101 12.563 4.54075 12.5441 4.64324C11.8915 8.10654 9.65865 9.30298 6.80707 9.30298H5.35513C5.00637 9.30298 4.71243 9.56463 4.6582 9.92021L3.70427 16.1743C3.66895 16.4078 3.84304 16.6182 4.07092 16.6182H6.64614C6.95101 16.6182 7.21007 16.3892 7.2581 16.0784L7.28337 15.9432L7.76824 12.7629L7.79942 12.5885C7.84686 12.2766 8.10651 12.0475 8.41138 12.0475H8.7965C11.2915 12.0475 13.2447 11.0006 13.8156 7.97075C14.0539 6.70512 13.9305 5.64829 13.2995 4.90504C13.1086 4.68097 12.8717 4.49492 12.5946 4.3434Z" fill="#2F80ED"/>
<path id="Fill 9" fill-rule="evenodd" clip-rule="evenodd" d="M11.9115 4.06214C11.8118 4.03205 11.7089 4.00486 11.6034 3.98027C11.4973 3.95629 11.3887 3.93506 11.2768 3.91642C10.8853 3.85105 10.4563 3.82004 9.99687 3.82004H6.11808C6.02247 3.82004 5.93173 3.84234 5.8506 3.88267C5.67164 3.97156 5.53878 4.14661 5.50657 4.36091L4.68136 9.76283L4.65771 9.9203C4.71195 9.56472 5.00589 9.30307 5.35465 9.30307H6.80659C9.65816 9.30307 11.891 8.10602 12.5436 4.64333C12.5631 4.54084 12.5795 4.4411 12.5941 4.34349C12.429 4.25292 12.2502 4.17548 12.0577 4.10949C12.0101 4.09315 11.961 4.07741 11.9115 4.06214Z" fill="#28356A"/>
<path id="Fill 11" fill-rule="evenodd" clip-rule="evenodd" d="M5.50679 4.36093C5.53901 4.14663 5.67186 3.97159 5.85083 3.8833C5.93255 3.84283 6.0227 3.82053 6.11831 3.82053H9.9971C10.4566 3.82053 10.8856 3.85169 11.277 3.91706C11.3889 3.93554 11.4975 3.95693 11.6036 3.98091C11.7091 4.00535 11.812 4.03269 11.9117 4.06263C11.9613 4.0779 12.0103 4.09379 12.0583 4.10952C12.2509 4.1755 12.4299 4.25355 12.5949 4.34352C12.7891 3.06368 12.5933 2.19228 11.9239 1.40321C11.1857 0.534408 9.85361 0.162631 8.14896 0.162631H3.20009C2.85192 0.162631 2.55488 0.42428 2.50109 0.780478L0.439846 14.285C0.399206 14.5521 0.598562 14.7931 0.859246 14.7931H3.91446L5.50679 4.36093Z" fill="#28356A"/>
</g>
</svg>
