<svg width="30" height="10" viewBox="0 0 30 10" fill="none" xmlns="http://www.w3.org/2000/svg">
<path id="visa-logo" fill-rule="evenodd" clip-rule="evenodd" d="M7.43781 9.82275H4.86314L2.93244 2.24041C2.84081 1.89162 2.64623 1.58327 2.36002 1.43794C1.64573 1.07273 0.858644 0.78207 0 0.635478V0.343557H4.1476C4.72003 0.343557 5.14935 0.78207 5.22091 1.29135L6.22266 6.76075L8.79608 0.343557H11.2992L7.43781 9.82275ZM12.7303 9.82275H10.2988L12.301 0.343557H14.7326L12.7303 9.82275ZM17.8784 2.96963C17.95 2.45908 18.3793 2.16716 18.8802 2.16716C19.6672 2.09387 20.5246 2.24046 21.2402 2.60441L21.6695 0.563497C20.954 0.271577 20.1669 0.124985 19.4526 0.124985C17.0926 0.124985 15.3753 1.43799 15.3753 3.26028C15.3753 4.64659 16.5917 5.37449 17.4503 5.813C18.3793 6.25025 18.737 6.54217 18.6655 6.97942C18.6655 7.63529 17.95 7.92721 17.2357 7.92721C16.377 7.92721 15.5184 7.70859 14.7326 7.34337L14.3032 9.38555C15.1619 9.7495 16.0908 9.8961 16.9495 9.8961C19.5957 9.96813 21.2402 8.65638 21.2402 6.6875C21.2402 4.20808 17.8784 4.06275 17.8784 2.96963ZM29.7499 9.82275L27.8192 0.343557H25.7454C25.3161 0.343557 24.8868 0.635478 24.7437 1.07273L21.1685 9.82275H23.6716L24.1712 8.43771H27.2468L27.533 9.82275H29.7499ZM26.1033 2.89623L26.8176 6.46878H24.8154L26.1033 2.89623Z" fill="#28356A"/>
</svg>
